<svg width="512" height="512" viewBox="-5 -5 110 110" xmlns="http://www.w3.org/2000/svg" font-family="-apple-system, BlinkMacSystemFont, 'Segoe UI', Roboto, Helvetica, Arial, sans-serif, 'Apple Color Emoji', 'Segoe UI Emoji', 'Segoe UI Symbol'">

  <defs>
    <clipPath id="icon-mask">
      <path d="M 0,30 C 0,13.4 13.4,0 30,0 L 70,0 C 86.6,0 100,13.4 100,30 L 100,70 C 100,86.6 86.6,100 70,100 L 30,100 C 13.4,100 0,86.6 0,70 Z"/>
    </clipPath>
    <filter id="shadow" x="-20%" y="-20%" width="140%" height="140%">
      <feGaussianBlur stdDeviation="2"/>
    </filter>
  </defs>

  <!-- Shadow background -->
  <path d="M 0,30 C 0,13.4 13.4,0 30,0 L 70,0 C 86.6,0 100,13.4 100,30 L 100,70 C 100,86.6 86.6,100 70,100 L 30,100 C 13.4,100 0,86.6 0,70 Z" fill="#000000" fill-opacity="0.15" transform="translate(0,3)" filter="url(#shadow)"/>

  <g clip-path="url(#icon-mask)">

    <rect x="0" y="0" width="100" height="100" fill="#ffffff"/>

    <path d="M 0,30 C 0,13.4 13.4,0 30,0 L 70,0 C 86.6,0 100,13.4 100,30 L 100,70 C 100,86.6 86.6,100 70,100 L 30,100 C 13.4,100 0,86.6 0,70 Z" fill="none" stroke="#000000" stroke-width="0"/>

    <rect x="0" y="0" width="100" height="40" fill="#F56B15"/>

    <text x="50" y="25"
          font-size="14"
          font-weight="600"
          fill="#ffffff"
          text-anchor="middle"
          dominant-baseline="middle">
      CALSNAP
    </text>

    <text x="50" y="95"
          font-size="100"
          font-weight="200"
          fill="#000000"
          text-anchor="middle"
          dominant-baseline="middle"
          letter-spacing="">
      **
    </text>

  </g>
</svg>